<svg width="1120" height="48" viewBox="0 0 1120 48" fill="none" xmlns="http://www.w3.org/2000/svg">
<g clip-path="url(#clip0_48_439)">
<path d="M35.7677 30.45V4.3391H46.1214C47.8863 4.3391 49.3309 4.69571 50.4551 5.40892C51.5914 6.11005 52.4316 7.01063 52.9755 8.11068C53.5316 9.21072 53.8096 10.347 53.8096 11.5196C53.8096 12.9581 53.4651 14.179 52.7761 15.1824C52.0991 16.1857 51.1744 16.8627 50.0018 17.2132V16.3066C51.6458 16.6813 52.8909 17.461 53.7371 18.6457C54.5954 19.8304 55.0245 21.1782 55.0245 22.6893C55.0245 24.2366 54.7283 25.5905 54.136 26.751C53.5437 27.9115 52.6612 28.8181 51.4887 29.4709C50.3282 30.1236 48.8897 30.45 47.1731 30.45H35.7677ZM40.1921 26.3339H46.6291C47.3907 26.3339 48.0737 26.1828 48.6781 25.8806C49.2825 25.5663 49.754 25.1311 50.0925 24.5751C50.443 24.0069 50.6183 23.336 50.6183 22.5623C50.6183 21.8612 50.4672 21.2326 50.165 20.6766C49.8628 20.1205 49.4215 19.6793 48.8413 19.3529C48.2611 19.0144 47.566 18.8452 46.7561 18.8452H40.1921V26.3339ZM40.1921 14.7653H46.067C46.6956 14.7653 47.2577 14.6444 47.7534 14.4027C48.249 14.1609 48.6418 13.8043 48.932 13.3329C49.2221 12.8614 49.3671 12.2812 49.3671 11.5921C49.3671 10.6855 49.077 9.92998 48.4968 9.32556C47.9165 8.72114 47.1066 8.41893 46.067 8.41893H40.1921V14.7653ZM67.2952 30.994C65.3369 30.994 63.6263 30.5528 62.1636 29.6703C60.701 28.7879 59.5646 27.573 58.7547 26.0257C57.9569 24.4663 57.558 22.6772 57.558 20.6584C57.558 18.6034 57.969 16.8022 58.791 15.2549C59.613 13.7076 60.7554 12.4988 62.218 11.6284C63.6807 10.758 65.3731 10.3229 67.2952 10.3229C69.2656 10.3229 70.9821 10.7641 72.4448 11.6465C73.9075 12.529 75.0438 13.7499 75.8537 15.3093C76.6637 16.8566 77.0686 18.6397 77.0686 20.6584C77.0686 22.6893 76.6576 24.4844 75.8356 26.0438C75.0257 27.5911 73.8894 28.806 72.4267 29.6884C70.964 30.5588 69.2535 30.994 67.2952 30.994ZM67.2952 26.896C69.0359 26.896 70.3294 26.3158 71.1755 25.1553C72.0217 23.9948 72.4448 22.4959 72.4448 20.6584C72.4448 18.7605 72.0157 17.2495 71.1574 16.1253C70.2991 14.989 69.0117 14.4208 67.2952 14.4208C66.1226 14.4208 65.1555 14.6868 64.394 15.2186C63.6445 15.7384 63.0884 16.4698 62.7258 17.4127C62.3631 18.3435 62.1818 19.4254 62.1818 20.6584C62.1818 22.5563 62.6109 24.0734 63.4692 25.2097C64.3396 26.3339 65.6149 26.896 67.2952 26.896ZM81.4264 30.45V3.79512H85.7963V30.45H81.4264ZM99.0793 30.994C97.2781 30.994 95.7066 30.5407 94.3648 29.634C93.023 28.7274 91.9834 27.4944 91.246 25.935C90.5086 24.3756 90.1399 22.6167 90.1399 20.6584C90.1399 18.6759 90.5086 16.911 91.246 15.3637C91.9955 13.8043 93.0532 12.5773 94.4192 11.6828C95.7852 10.7762 97.393 10.3229 99.2425 10.3229C101.104 10.3229 102.664 10.7762 103.921 11.6828C105.19 12.5773 106.151 13.8043 106.804 15.3637C107.457 16.9231 107.783 18.688 107.783 20.6584C107.783 22.6047 107.457 24.3635 106.804 25.935C106.151 27.4944 105.178 28.7274 103.884 29.634C102.591 30.5407 100.989 30.994 99.0793 30.994ZM99.7502 27.0774C100.923 27.0774 101.866 26.8114 102.579 26.2795C103.304 25.7355 103.83 24.98 104.156 24.0129C104.495 23.0459 104.664 21.9277 104.664 20.6584C104.664 19.3771 104.495 18.2589 104.156 17.3039C103.83 16.3368 103.316 15.5873 102.615 15.0555C101.914 14.5115 101.007 14.2395 99.8953 14.2395C98.7227 14.2395 97.7556 14.5296 96.9941 15.1099C96.2325 15.678 95.6704 16.4517 95.3077 17.4308C94.9451 18.3979 94.7638 19.4738 94.7638 20.6584C94.7638 21.8552 94.939 22.9431 95.2896 23.9223C95.6523 24.8894 96.2023 25.657 96.9397 26.2251C97.6771 26.7933 98.6139 27.0774 99.7502 27.0774ZM104.664 30.45V16.7055H104.12V4.3391H108.526V30.45H104.664ZM122.26 30.994C120.301 30.994 118.591 30.5528 117.128 29.6703C115.665 28.7879 114.529 27.573 113.719 26.0257C112.921 24.4663 112.522 22.6772 112.522 20.6584C112.522 18.6034 112.933 16.8022 113.755 15.2549C114.577 13.7076 115.72 12.4988 117.182 11.6284C118.645 10.758 120.337 10.3229 122.26 10.3229C124.23 10.3229 125.946 10.7641 127.409 11.6465C128.872 12.529 130.008 13.7499 130.818 15.3093C131.628 16.8566 132.033 18.6397 132.033 20.6584C132.033 22.6893 131.622 24.4844 130.8 26.0438C129.99 27.5911 128.854 28.806 127.391 29.6884C125.928 30.5588 124.218 30.994 122.26 30.994ZM122.26 26.896C124 26.896 125.294 26.3158 126.14 25.1553C126.986 23.9948 127.409 22.4959 127.409 20.6584C127.409 18.7605 126.98 17.2495 126.122 16.1253C125.264 14.989 123.976 14.4208 122.26 14.4208C121.087 14.4208 120.12 14.6868 119.358 15.2186C118.609 15.7384 118.053 16.4698 117.69 17.4127C117.327 18.3435 117.146 19.4254 117.146 20.6584C117.146 22.5563 117.575 24.0734 118.434 25.2097C119.304 26.3339 120.579 26.896 122.26 26.896Z" fill="white"/>
<path d="M0 16.45H14.3176C19.201 16.45 23.1597 20.4088 23.1597 25.2921C23.1597 30.1755 19.201 34.1343 14.3176 34.1343H0V16.45Z" fill="white"/>
<path d="M0 0.976349H9.47953C13.1421 0.976349 16.1111 3.94541 16.1111 7.60793C16.1111 11.2704 13.1421 14.2395 9.47953 14.2395H0V0.976349Z" fill="white"/>
<g clip-path="url(#clip1_48_439)">
<g clip-path="url(#clip2_48_439)">
<path d="M210.34 2.69283C210.302 2.62068 210.279 2.54188 210.272 2.46092C210.265 2.37995 210.275 2.29842 210.299 2.22097C210.324 2.14353 210.363 2.07168 210.416 2.00955C210.468 1.94741 210.532 1.8962 210.604 1.85885C212.819 0.732861 215.278 0.175628 217.762 0.237385C220.245 0.299142 222.674 0.977947 224.829 2.2126C224.9 2.25326 224.962 2.30752 225.012 2.37224C225.061 2.43697 225.098 2.51088 225.119 2.58971C225.139 2.66854 225.145 2.75074 225.134 2.83155C225.123 2.91237 225.096 2.99021 225.054 3.06058L217.933 15.2819C217.879 15.3755 217.801 15.4531 217.707 15.507C217.613 15.5609 217.507 15.5892 217.399 15.5891H217.383C217.272 15.5861 217.164 15.5535 217.07 15.4947C216.976 15.4359 216.9 15.353 216.848 15.2546L210.34 2.69283ZM217.017 18.8484V18.8472L210.508 6.28538C210.432 6.13995 210.302 6.03033 210.146 5.98046C209.99 5.93059 209.82 5.94452 209.674 6.0192C207.939 6.9087 206.397 8.13205 205.137 9.61902C203.876 11.106 202.921 12.8273 202.327 14.6842C201.734 16.5411 201.512 18.497 201.676 20.4396C201.84 22.3822 202.386 24.2733 203.283 26.0044C204.18 27.7354 205.409 29.2723 206.902 30.5269C208.394 31.7815 210.119 32.7291 211.978 33.3152C213.838 33.9013 215.794 34.1144 217.736 33.9424C219.678 33.7703 221.567 33.2165 223.294 32.3126C223.44 32.2366 223.549 32.1063 223.598 31.9502C223.647 31.794 223.633 31.6247 223.558 31.4791L217.017 18.8484ZM224.647 30.7219L224.696 30.821C224.771 30.9671 224.9 31.0782 225.056 31.1307C225.119 31.1518 225.187 31.1602 225.254 31.1554C225.352 31.1527 225.448 31.1317 225.539 31.0935C225.764 30.9818 225.983 30.8577 226.195 30.7219C226.825 30.3564 227.426 29.9423 227.991 29.4833H224.003L224.647 30.7219ZM223.359 28.2446H229.341C229.726 27.8581 230.082 27.4442 230.406 27.006H222.715L223.359 28.2446ZM222.083 25.7673H231.286C231.54 25.3697 231.767 24.9559 231.967 24.5287H221.439L222.083 25.7673ZM220.795 23.2901H232.512C232.677 22.8857 232.817 22.4721 232.933 22.0514H220.151L220.795 23.2901ZM219.506 20.8128H233.243C233.317 20.404 233.379 19.9953 233.416 19.5741H218.875L219.506 20.8128ZM226.146 5.15636C226.076 5.11313 225.998 5.08524 225.917 5.07456C225.836 5.06388 225.753 5.07065 225.675 5.09443C225.595 5.11275 225.519 5.14753 225.453 5.19657C225.387 5.24561 225.332 5.30784 225.291 5.37931L224.956 5.94909H227.347C226.961 5.66355 226.56 5.39893 226.146 5.15636ZM228.846 7.18773H224.238L223.52 8.42637H230.023C229.656 7.98976 229.263 7.5761 228.846 7.18773ZM230.951 9.66501H222.789L222.07 10.9037H231.707C231.484 10.4741 231.231 10.0603 230.951 9.66501ZM232.302 12.1423H221.352L220.634 13.3809H232.785C232.647 12.9592 232.486 12.5456 232.302 12.1423ZM233.131 14.6196H219.903L219.184 15.8582H233.354C233.305 15.4412 233.231 15.0276 233.131 14.6196ZM233.478 17.0969H218.466L218.169 17.6047C218.115 17.6941 218.086 17.796 218.083 17.9003C218.081 18.0046 218.106 18.1077 218.156 18.1992L218.231 18.3355H233.503C233.515 18.2116 233.515 18.0754 233.515 17.9515C233.515 17.6666 233.503 17.3817 233.478 17.0969Z" fill="white"/>
<path d="M210.055 5.40696C209.828 4.97673 209.294 4.80993 208.877 5.06072C205.577 7.04608 203.111 10.182 201.968 13.8808C200.738 17.861 201.139 22.1669 203.083 25.8512C205.028 29.5356 208.356 32.2967 212.336 33.5271C216.035 34.6705 220.015 34.4049 223.516 32.801C223.958 32.5985 224.122 32.0632 223.895 31.6329L216.975 18.52L210.055 5.40696Z" fill="white"/>
</g>
<path d="M255.616 6.48689C258.166 6.48689 260.153 7.10322 261.577 8.33586C263.022 9.54726 263.745 11.2687 263.745 13.5002C263.745 15.7317 263.022 17.4638 261.577 18.6965C260.153 19.9079 258.166 20.5136 255.616 20.5136H251.44V27.5269H245.956V6.48689H255.616ZM254.755 16.4012C257.071 16.4012 258.23 15.4342 258.23 13.5002C258.23 11.5662 257.071 10.5993 254.755 10.5993H251.44V16.4012H254.755ZM266.868 27.5269V11.5875H271.65L271.873 15.0304C272.255 13.8615 272.84 12.9477 273.626 12.2888C274.434 11.6087 275.465 11.2687 276.718 11.2687C277.122 11.2687 277.462 11.3112 277.739 11.3962C278.036 11.46 278.27 11.5344 278.44 11.6194L277.898 16.0824C277.685 16.0186 277.409 15.9549 277.069 15.8911C276.75 15.8274 276.357 15.7955 275.89 15.7955C274.912 15.7955 274.062 16.1037 273.339 16.72C272.638 17.3363 272.287 18.2608 272.287 19.4934V27.5269H266.868ZM288.157 27.8457C285.501 27.8457 283.397 27.1231 281.845 25.6779C280.315 24.2327 279.55 22.1925 279.55 19.5572C279.55 17.8145 279.901 16.3268 280.602 15.0942C281.325 13.8403 282.302 12.8945 283.535 12.257C284.789 11.5981 286.245 11.2687 287.902 11.2687C289.581 11.2687 291.005 11.5981 292.174 12.257C293.364 12.8945 294.268 13.7871 294.884 14.9348C295.5 16.0612 295.808 17.3576 295.808 18.824C295.808 19.2278 295.787 19.6209 295.745 20.0035C295.723 20.3648 295.702 20.6729 295.681 20.928H284.81C284.959 22.0331 285.32 22.8301 285.894 23.3189C286.468 23.7864 287.222 24.0202 288.157 24.0202C288.965 24.0202 289.603 23.8608 290.07 23.542C290.559 23.2233 290.92 22.7769 291.154 22.2031L295.49 23.6377C295.192 24.5515 294.671 25.3273 293.928 25.9648C293.205 26.5811 292.334 27.0487 291.313 27.3675C290.315 27.6863 289.263 27.8457 288.157 27.8457ZM287.902 15.0623C286.181 15.0623 285.161 16.0505 284.842 18.027H290.676C290.442 16.0505 289.518 15.0623 287.902 15.0623ZM305.535 27.8457C303.941 27.8457 302.464 27.5906 301.103 27.0806C299.743 26.5493 298.606 25.7948 297.692 24.8172L300.243 21.8206C300.774 22.5007 301.475 23.0745 302.347 23.542C303.239 23.9883 304.228 24.2115 305.311 24.2115C305.97 24.2115 306.512 24.1159 306.937 23.9246C307.362 23.7333 307.575 23.4358 307.575 23.032C307.575 22.7557 307.469 22.5219 307.256 22.3306C307.044 22.1394 306.618 21.98 305.981 21.8525L303.749 21.4062C301.752 21.0024 300.328 20.4073 299.478 19.6209C298.649 18.8134 298.234 17.7614 298.234 16.465C298.234 15.5936 298.5 14.7647 299.031 13.9784C299.563 13.1921 300.381 12.5439 301.486 12.0338C302.591 11.5237 304.004 11.2687 305.726 11.2687C309.02 11.2687 311.422 12.1826 312.93 14.0103L310.348 16.9431C309.838 16.3056 309.179 15.8061 308.372 15.4448C307.564 15.0835 306.757 14.9029 305.949 14.9029C304.398 14.9029 303.622 15.2961 303.622 16.0824C303.622 16.3587 303.749 16.6031 304.004 16.8156C304.281 17.0281 304.78 17.1982 305.503 17.3257L308.404 17.8995C310.04 18.2183 311.22 18.7708 311.942 19.5572C312.665 20.3223 313.026 21.2574 313.026 22.3625C313.026 23.914 312.399 25.221 311.145 26.2836C309.913 27.325 308.042 27.8457 305.535 27.8457ZM327.251 11.5875V15.4448H322.501V21.8525C322.501 22.6176 322.681 23.1701 323.043 23.5102C323.425 23.8289 323.946 23.9883 324.605 23.9883C325.115 23.9883 325.55 23.9352 325.912 23.8289C326.273 23.7014 326.613 23.5208 326.932 23.287L327.506 26.6343C326.974 26.9956 326.294 27.2931 325.465 27.5269C324.658 27.7394 323.84 27.8457 323.011 27.8457C321.183 27.8457 319.738 27.4631 318.675 26.698C317.634 25.9117 317.102 24.594 317.081 22.7451V15.4448H314.34V11.5875H317.081V8.01707L322.501 6.51877V11.5875H327.251ZM337.341 11.2687C339.02 11.2687 340.486 11.5981 341.74 12.257C343.015 12.9158 344.004 13.8615 344.705 15.0942C345.427 16.3268 345.789 17.8145 345.789 19.5572C345.789 21.2999 345.427 22.7876 344.705 24.0202C344.004 25.2529 343.015 26.1986 341.74 26.8574C340.486 27.5163 339.02 27.8457 337.341 27.8457C335.683 27.8457 334.217 27.5163 332.942 26.8574C331.688 26.1986 330.7 25.2529 329.977 24.0202C329.276 22.7876 328.925 21.2999 328.925 19.5572C328.925 17.8145 329.276 16.3268 329.977 15.0942C330.7 13.8615 331.688 12.9158 332.942 12.257C334.217 11.5981 335.683 11.2687 337.341 11.2687ZM337.341 15.126C336.406 15.126 335.673 15.4767 335.141 16.178C334.631 16.8581 334.376 17.9845 334.376 19.5572C334.376 21.1086 334.631 22.235 335.141 22.9363C335.673 23.6377 336.406 23.9883 337.341 23.9883C338.297 23.9883 339.03 23.6377 339.541 22.9363C340.072 22.235 340.338 21.1086 340.338 19.5572C340.338 17.9845 340.072 16.8581 339.541 16.178C339.03 15.4767 338.297 15.126 337.341 15.126Z" fill="white"/>
</g>
<path d="M439.15 30.45V4.3391H449.504C451.269 4.3391 452.713 4.69571 453.837 5.40892C454.974 6.11005 455.814 7.01063 456.358 8.11068C456.914 9.21072 457.192 10.347 457.192 11.5196C457.192 12.9581 456.847 14.179 456.158 15.1824C455.481 16.1857 454.557 16.8627 453.384 17.2132V16.3066C455.028 16.6813 456.273 17.461 457.119 18.6457C457.978 19.8304 458.407 21.1782 458.407 22.6893C458.407 24.2366 458.111 25.5905 457.518 26.751C456.926 27.9115 456.044 28.8181 454.871 29.4709C453.711 30.1236 452.272 30.45 450.555 30.45H439.15ZM443.574 26.3339H450.011C450.773 26.3339 451.456 26.1828 452.06 25.8806C452.665 25.5663 453.136 25.1311 453.475 24.5751C453.825 24.0069 454.001 23.336 454.001 22.5623C454.001 21.8612 453.85 21.2326 453.547 20.6766C453.245 20.1205 452.804 19.6793 452.224 19.3529C451.643 19.0144 450.948 18.8452 450.138 18.8452H443.574V26.3339ZM443.574 14.7653H449.449C450.078 14.7653 450.64 14.6444 451.136 14.4027C451.631 14.1609 452.024 13.8043 452.314 13.3329C452.604 12.8614 452.75 12.2812 452.75 11.5921C452.75 10.6855 452.459 9.92998 451.879 9.32556C451.299 8.72114 450.489 8.41893 449.449 8.41893H443.574V14.7653ZM470.678 30.994C468.719 30.994 467.009 30.5528 465.546 29.6703C464.083 28.7879 462.947 27.573 462.137 26.0257C461.339 24.4663 460.94 22.6772 460.94 20.6584C460.94 18.6034 461.351 16.8022 462.173 15.2549C462.995 13.7076 464.138 12.4988 465.6 11.6284C467.063 10.758 468.755 10.3229 470.678 10.3229C472.648 10.3229 474.364 10.7641 475.827 11.6465C477.29 12.529 478.426 13.7499 479.236 15.3093C480.046 16.8566 480.451 18.6397 480.451 20.6584C480.451 22.6893 480.04 24.4844 479.218 26.0438C478.408 27.5911 477.272 28.806 475.809 29.6884C474.346 30.5588 472.636 30.994 470.678 30.994ZM470.678 26.896C472.418 26.896 473.712 26.3158 474.558 25.1553C475.404 23.9948 475.827 22.4959 475.827 20.6584C475.827 18.7605 475.398 17.2495 474.54 16.1253C473.681 14.989 472.394 14.4208 470.678 14.4208C469.505 14.4208 468.538 14.6868 467.776 15.2186C467.027 15.7384 466.471 16.4698 466.108 17.4127C465.745 18.3435 465.564 19.4254 465.564 20.6584C465.564 22.5563 465.993 24.0734 466.852 25.2097C467.722 26.3339 468.997 26.896 470.678 26.896ZM484.809 30.45V3.79512H489.179V30.45H484.809ZM502.462 30.994C500.66 30.994 499.089 30.5407 497.747 29.634C496.405 28.7274 495.366 27.4944 494.628 25.935C493.891 24.3756 493.522 22.6167 493.522 20.6584C493.522 18.6759 493.891 16.911 494.628 15.3637C495.378 13.8043 496.436 12.5773 497.802 11.6828C499.168 10.7762 500.775 10.3229 502.625 10.3229C504.486 10.3229 506.046 10.7762 507.303 11.6828C508.572 12.5773 509.533 13.8043 510.186 15.3637C510.839 16.9231 511.165 18.688 511.165 20.6584C511.165 22.6047 510.839 24.3635 510.186 25.935C509.533 27.4944 508.56 28.7274 507.267 29.634C505.973 30.5407 504.372 30.994 502.462 30.994ZM503.133 27.0774C504.305 27.0774 505.248 26.8114 505.961 26.2795C506.687 25.7355 507.212 24.98 507.539 24.0129C507.877 23.0459 508.046 21.9277 508.046 20.6584C508.046 19.3771 507.877 18.2589 507.539 17.3039C507.212 16.3368 506.699 15.5873 505.998 15.0555C505.296 14.5115 504.39 14.2395 503.278 14.2395C502.105 14.2395 501.138 14.5296 500.376 15.1099C499.615 15.678 499.053 16.4517 498.69 17.4308C498.327 18.3979 498.146 19.4738 498.146 20.6584C498.146 21.8552 498.321 22.9431 498.672 23.9223C499.035 24.8894 499.585 25.657 500.322 26.2251C501.059 26.7933 501.996 27.0774 503.133 27.0774ZM508.046 30.45V16.7055H507.503V4.3391H511.909V30.45H508.046ZM525.642 30.994C523.684 30.994 521.973 30.5528 520.51 29.6703C519.048 28.7879 517.911 27.573 517.101 26.0257C516.304 24.4663 515.905 22.6772 515.905 20.6584C515.905 18.6034 516.316 16.8022 517.138 15.2549C517.96 13.7076 519.102 12.4988 520.565 11.6284C522.027 10.758 523.72 10.3229 525.642 10.3229C527.612 10.3229 529.329 10.7641 530.792 11.6465C532.254 12.529 533.391 13.7499 534.2 15.3093C535.01 16.8566 535.415 18.6397 535.415 20.6584C535.415 22.6893 535.004 24.4844 534.182 26.0438C533.372 27.5911 532.236 28.806 530.773 29.6884C529.311 30.5588 527.6 30.994 525.642 30.994ZM525.642 26.896C527.383 26.896 528.676 26.3158 529.522 25.1553C530.368 23.9948 530.792 22.4959 530.792 20.6584C530.792 18.7605 530.362 17.2495 529.504 16.1253C528.646 14.989 527.358 14.4208 525.642 14.4208C524.469 14.4208 523.502 14.6868 522.741 15.2186C521.991 15.7384 521.435 16.4698 521.072 17.4127C520.71 18.3435 520.529 19.4254 520.529 20.6584C520.529 22.5563 520.958 24.0734 521.816 25.2097C522.686 26.3339 523.962 26.896 525.642 26.896Z" fill="white"/>
<path d="M403.382 16.45H417.7C422.583 16.45 426.542 20.4088 426.542 25.2921C426.542 30.1755 422.583 34.1343 417.7 34.1343H403.382V16.45Z" fill="white"/>
<path d="M403.382 0.976349H412.862C416.524 0.976349 419.493 3.94541 419.493 7.60793C419.493 11.2704 416.524 14.2395 412.862 14.2395H403.382V0.976349Z" fill="white"/>
<g clip-path="url(#clip3_48_439)">
<g clip-path="url(#clip4_48_439)">
<path d="M614.082 2.69283C614.045 2.62068 614.022 2.54188 614.015 2.46092C614.008 2.37995 614.017 2.29842 614.042 2.22097C614.067 2.14353 614.106 2.07168 614.159 2.00955C614.211 1.94741 614.275 1.8962 614.347 1.85885C616.561 0.732861 619.021 0.175628 621.504 0.237385C623.988 0.299142 626.417 0.977947 628.572 2.2126C628.643 2.25326 628.705 2.30752 628.755 2.37224C628.804 2.43697 628.84 2.51088 628.861 2.58971C628.882 2.66854 628.887 2.75074 628.876 2.83155C628.865 2.91237 628.839 2.99021 628.797 3.06058L621.676 15.2819C621.622 15.3755 621.544 15.4531 621.45 15.507C621.356 15.5609 621.25 15.5892 621.142 15.5891H621.126C621.015 15.5861 620.907 15.5535 620.813 15.4947C620.719 15.4359 620.642 15.353 620.591 15.2546L614.082 2.69283ZM620.76 18.8484V18.8472L614.25 6.28538C614.175 6.13995 614.045 6.03033 613.889 5.98046C613.733 5.93059 613.563 5.94452 613.417 6.0192C611.682 6.9087 610.14 8.13205 608.88 9.61902C607.619 11.106 606.664 12.8273 606.07 14.6842C605.476 16.5411 605.255 18.497 605.419 20.4396C605.583 22.3822 606.129 24.2733 607.026 26.0044C607.922 27.7354 609.152 29.2723 610.644 30.5269C612.137 31.7815 613.862 32.7291 615.721 33.3152C617.581 33.9013 619.537 34.1144 621.479 33.9424C623.421 33.7703 625.31 33.2165 627.037 32.3126C627.182 32.2366 627.292 32.1063 627.341 31.9502C627.39 31.794 627.376 31.6247 627.301 31.4791L620.76 18.8484ZM628.39 30.7219L628.439 30.821C628.514 30.9671 628.643 31.0782 628.798 31.1307C628.862 31.1518 628.93 31.1602 628.997 31.1554C629.095 31.1527 629.191 31.1317 629.281 31.0935C629.507 30.9818 629.726 30.8577 629.938 30.7219C630.568 30.3564 631.168 29.9423 631.734 29.4833H627.746L628.39 30.7219ZM627.101 28.2446H633.084C633.469 27.8581 633.825 27.4442 634.149 27.006H626.457L627.101 28.2446ZM625.826 25.7673H635.029C635.282 25.3697 635.51 24.9559 635.71 24.5287H625.182L625.826 25.7673ZM624.537 23.2901H636.255C636.419 22.8857 636.56 22.4721 636.676 22.0514H623.893L624.537 23.2901ZM623.249 20.8128H636.986C637.06 20.404 637.122 19.9953 637.159 19.5741H622.618L623.249 20.8128ZM629.888 5.15636C629.819 5.11313 629.741 5.08524 629.66 5.07456C629.579 5.06388 629.496 5.07065 629.418 5.09443C629.338 5.11275 629.262 5.14753 629.196 5.19657C629.13 5.24561 629.075 5.30784 629.034 5.37931L628.699 5.94909H631.09C630.704 5.66355 630.303 5.39893 629.888 5.15636ZM632.589 7.18773H627.981L627.263 8.42637H633.765C633.399 7.98976 633.006 7.5761 632.589 7.18773ZM634.694 9.66501H626.532L625.813 10.9037H635.45C635.226 10.4741 634.974 10.0603 634.694 9.66501ZM636.044 12.1423H625.095L624.376 13.3809H636.528C636.39 12.9592 636.229 12.5456 636.044 12.1423ZM636.874 14.6196H623.646L622.927 15.8582H637.097C637.048 15.4412 636.974 15.0276 636.874 14.6196ZM637.221 17.0969H622.209L621.912 17.6047C621.858 17.6941 621.829 17.796 621.826 17.9003C621.824 18.0046 621.849 18.1077 621.899 18.1992L621.974 18.3355H637.246C637.258 18.2116 637.258 18.0754 637.258 17.9515C637.258 17.6666 637.246 17.3817 637.221 17.0969Z" fill="white"/>
<path d="M613.798 5.40696C613.571 4.97673 613.036 4.80993 612.62 5.06072C609.32 7.04608 606.854 10.182 605.711 13.8808C604.48 17.861 604.882 22.1669 606.826 25.8512C608.77 29.5356 612.099 32.2967 616.079 33.5271C619.778 34.6705 623.758 34.4049 627.259 32.801C627.701 32.5985 627.865 32.0632 627.638 31.6329L620.718 18.52L613.798 5.40696Z" fill="white"/>
</g>
<path d="M659.359 6.48689C661.909 6.48689 663.896 7.10322 665.32 8.33586C666.765 9.54726 667.488 11.2687 667.488 13.5002C667.488 15.7317 666.765 17.4638 665.32 18.6965C663.896 19.9079 661.909 20.5136 659.359 20.5136H655.182V27.5269H649.699V6.48689H659.359ZM658.498 16.4012C660.814 16.4012 661.973 15.4342 661.973 13.5002C661.973 11.5662 660.814 10.5993 658.498 10.5993H655.182V16.4012H658.498ZM670.611 27.5269V11.5875H675.393L675.616 15.0304C675.998 13.8615 676.583 12.9477 677.369 12.2888C678.177 11.6087 679.207 11.2687 680.461 11.2687C680.865 11.2687 681.205 11.3112 681.481 11.3962C681.779 11.46 682.013 11.5344 682.183 11.6194L681.641 16.0824C681.428 16.0186 681.152 15.9549 680.812 15.8911C680.493 15.8274 680.1 15.7955 679.632 15.7955C678.655 15.7955 677.805 16.1037 677.082 16.72C676.381 17.3363 676.03 18.2608 676.03 19.4934V27.5269H670.611ZM691.9 27.8457C689.244 27.8457 687.14 27.1231 685.588 25.6779C684.058 24.2327 683.293 22.1925 683.293 19.5572C683.293 17.8145 683.644 16.3268 684.345 15.0942C685.068 13.8403 686.045 12.8945 687.278 12.257C688.532 11.5981 689.988 11.2687 691.645 11.2687C693.324 11.2687 694.748 11.5981 695.917 12.257C697.107 12.8945 698.01 13.7871 698.627 14.9348C699.243 16.0612 699.551 17.3576 699.551 18.824C699.551 19.2278 699.53 19.6209 699.487 20.0035C699.466 20.3648 699.445 20.6729 699.424 20.928H688.553C688.702 22.0331 689.063 22.8301 689.637 23.3189C690.211 23.7864 690.965 24.0202 691.9 24.0202C692.708 24.0202 693.345 23.8608 693.813 23.542C694.302 23.2233 694.663 22.7769 694.897 22.2031L699.232 23.6377C698.935 24.5515 698.414 25.3273 697.67 25.9648C696.948 26.5811 696.076 27.0487 695.056 27.3675C694.057 27.6863 693.005 27.8457 691.9 27.8457ZM691.645 15.0623C689.924 15.0623 688.904 16.0505 688.585 18.027H694.419C694.185 16.0505 693.26 15.0623 691.645 15.0623ZM709.277 27.8457C707.684 27.8457 706.206 27.5906 704.846 27.0806C703.486 26.5493 702.349 25.7948 701.435 24.8172L703.986 21.8206C704.517 22.5007 705.218 23.0745 706.09 23.542C706.982 23.9883 707.97 24.2115 709.054 24.2115C709.713 24.2115 710.255 24.1159 710.68 23.9246C711.105 23.7333 711.318 23.4358 711.318 23.032C711.318 22.7557 711.211 22.5219 710.999 22.3306C710.786 22.1394 710.361 21.98 709.724 21.8525L707.492 21.4062C705.495 21.0024 704.071 20.4073 703.221 19.6209C702.392 18.8134 701.977 17.7614 701.977 16.465C701.977 15.5936 702.243 14.7647 702.774 13.9784C703.306 13.1921 704.124 12.5439 705.229 12.0338C706.334 11.5237 707.747 11.2687 709.469 11.2687C712.763 11.2687 715.164 12.1826 716.673 14.0103L714.091 16.9431C713.581 16.3056 712.922 15.8061 712.115 15.4448C711.307 15.0835 710.499 14.9029 709.692 14.9029C708.14 14.9029 707.365 15.2961 707.365 16.0824C707.365 16.3587 707.492 16.6031 707.747 16.8156C708.024 17.0281 708.523 17.1982 709.246 17.3257L712.147 17.8995C713.783 18.2183 714.963 18.7708 715.685 19.5572C716.408 20.3223 716.769 21.2574 716.769 22.3625C716.769 23.914 716.142 25.221 714.888 26.2836C713.655 27.325 711.785 27.8457 709.277 27.8457ZM730.993 11.5875V15.4448H726.243V21.8525C726.243 22.6176 726.424 23.1701 726.785 23.5102C727.168 23.8289 727.689 23.9883 728.347 23.9883C728.858 23.9883 729.293 23.9352 729.654 23.8289C730.016 23.7014 730.356 23.5208 730.675 23.287L731.248 26.6343C730.717 26.9956 730.037 27.2931 729.208 27.5269C728.401 27.7394 727.582 27.8457 726.754 27.8457C724.926 27.8457 723.481 27.4631 722.418 26.698C721.377 25.9117 720.845 24.594 720.824 22.7451V15.4448H718.082V11.5875H720.824V8.01707L726.243 6.51877V11.5875H730.993ZM741.084 11.2687C742.763 11.2687 744.229 11.5981 745.483 12.257C746.758 12.9158 747.746 13.8615 748.448 15.0942C749.17 16.3268 749.532 17.8145 749.532 19.5572C749.532 21.2999 749.17 22.7876 748.448 24.0202C747.746 25.2529 746.758 26.1986 745.483 26.8574C744.229 27.5163 742.763 27.8457 741.084 27.8457C739.426 27.8457 737.96 27.5163 736.685 26.8574C735.431 26.1986 734.442 25.2529 733.72 24.0202C733.018 22.7876 732.668 21.2999 732.668 19.5572C732.668 17.8145 733.018 16.3268 733.72 15.0942C734.442 13.8615 735.431 12.9158 736.685 12.257C737.96 11.5981 739.426 11.2687 741.084 11.2687ZM741.084 15.126C740.149 15.126 739.415 15.4767 738.884 16.178C738.374 16.8581 738.119 17.9845 738.119 19.5572C738.119 21.1086 738.374 22.235 738.884 22.9363C739.415 23.6377 740.149 23.9883 741.084 23.9883C742.04 23.9883 742.773 23.6377 743.283 22.9363C743.815 22.235 744.08 21.1086 744.08 19.5572C744.08 17.9845 743.815 16.8581 743.283 16.178C742.773 15.4767 742.04 15.126 741.084 15.126Z" fill="white"/>
</g>
<path d="M842.532 30.45V4.3391H852.886C854.651 4.3391 856.096 4.69571 857.22 5.40892C858.356 6.11005 859.196 7.01063 859.74 8.11068C860.296 9.21072 860.574 10.347 860.574 11.5196C860.574 12.9581 860.23 14.179 859.541 15.1824C858.864 16.1857 857.939 16.8627 856.766 17.2132V16.3066C858.41 16.6813 859.656 17.461 860.502 18.6457C861.36 19.8304 861.789 21.1782 861.789 22.6893C861.789 24.2366 861.493 25.5905 860.901 26.751C860.308 27.9115 859.426 28.8181 858.253 29.4709C857.093 30.1236 855.654 30.45 853.938 30.45H842.532ZM846.957 26.3339H853.394C854.155 26.3339 854.838 26.1828 855.443 25.8806C856.047 25.5663 856.519 25.1311 856.857 24.5751C857.208 24.0069 857.383 23.336 857.383 22.5623C857.383 21.8612 857.232 21.2326 856.93 20.6766C856.627 20.1205 856.186 19.6793 855.606 19.3529C855.026 19.0144 854.331 18.8452 853.521 18.8452H846.957V26.3339ZM846.957 14.7653H852.832C853.46 14.7653 854.022 14.6444 854.518 14.4027C855.014 14.1609 855.407 13.8043 855.697 13.3329C855.987 12.8614 856.132 12.2812 856.132 11.5921C856.132 10.6855 855.842 9.92998 855.261 9.32556C854.681 8.72114 853.871 8.41893 852.832 8.41893H846.957V14.7653ZM874.06 30.994C872.102 30.994 870.391 30.5528 868.928 29.6703C867.466 28.7879 866.329 27.573 865.519 26.0257C864.722 24.4663 864.323 22.6772 864.323 20.6584C864.323 18.6034 864.734 16.8022 865.556 15.2549C866.378 13.7076 867.52 12.4988 868.983 11.6284C870.445 10.758 872.138 10.3229 874.06 10.3229C876.03 10.3229 877.747 10.7641 879.209 11.6465C880.672 12.529 881.809 13.7499 882.618 15.3093C883.428 16.8566 883.833 18.6397 883.833 20.6584C883.833 22.6893 883.422 24.4844 882.6 26.0438C881.79 27.5911 880.654 28.806 879.191 29.6884C877.729 30.5588 876.018 30.994 874.06 30.994ZM874.06 26.896C875.801 26.896 877.094 26.3158 877.94 25.1553C878.786 23.9948 879.209 22.4959 879.209 20.6584C879.209 18.7605 878.78 17.2495 877.922 16.1253C877.064 14.989 875.776 14.4208 874.06 14.4208C872.887 14.4208 871.92 14.6868 871.159 15.2186C870.409 15.7384 869.853 16.4698 869.49 17.4127C869.128 18.3435 868.946 19.4254 868.946 20.6584C868.946 22.5563 869.376 24.0734 870.234 25.2097C871.104 26.3339 872.38 26.896 874.06 26.896ZM888.191 30.45V3.79512H892.561V30.45H888.191ZM905.844 30.994C904.043 30.994 902.471 30.5407 901.13 29.634C899.788 28.7274 898.748 27.4944 898.011 25.935C897.273 24.3756 896.905 22.6167 896.905 20.6584C896.905 18.6759 897.273 16.911 898.011 15.3637C898.76 13.8043 899.818 12.5773 901.184 11.6828C902.55 10.7762 904.158 10.3229 906.007 10.3229C907.869 10.3229 909.428 10.7762 910.685 11.6828C911.955 12.5773 912.916 13.8043 913.568 15.3637C914.221 16.9231 914.548 18.688 914.548 20.6584C914.548 22.6047 914.221 24.3635 913.568 25.935C912.916 27.4944 911.943 28.7274 910.649 29.634C909.356 30.5407 907.754 30.994 905.844 30.994ZM906.515 27.0774C907.687 27.0774 908.63 26.8114 909.344 26.2795C910.069 25.7355 910.595 24.98 910.921 24.0129C911.26 23.0459 911.429 21.9277 911.429 20.6584C911.429 19.3771 911.26 18.2589 910.921 17.3039C910.595 16.3368 910.081 15.5873 909.38 15.0555C908.679 14.5115 907.772 14.2395 906.66 14.2395C905.487 14.2395 904.52 14.5296 903.759 15.1099C902.997 15.678 902.435 16.4517 902.072 17.4308C901.71 18.3979 901.528 19.4738 901.528 20.6584C901.528 21.8552 901.704 22.9431 902.054 23.9223C902.417 24.8894 902.967 25.657 903.704 26.2251C904.442 26.7933 905.379 27.0774 906.515 27.0774ZM911.429 30.45V16.7055H910.885V4.3391H915.291V30.45H911.429ZM929.024 30.994C927.066 30.994 925.355 30.5528 923.893 29.6703C922.43 28.7879 921.294 27.573 920.484 26.0257C919.686 24.4663 919.287 22.6772 919.287 20.6584C919.287 18.6034 919.698 16.8022 920.52 15.2549C921.342 13.7076 922.484 12.4988 923.947 11.6284C925.41 10.758 927.102 10.3229 929.024 10.3229C930.995 10.3229 932.711 10.7641 934.174 11.6465C935.637 12.529 936.773 13.7499 937.583 15.3093C938.393 16.8566 938.798 18.6397 938.798 20.6584C938.798 22.6893 938.387 24.4844 937.565 26.0438C936.755 27.5911 935.618 28.806 934.156 29.6884C932.693 30.5588 930.983 30.994 929.024 30.994ZM929.024 26.896C930.765 26.896 932.058 26.3158 932.905 25.1553C933.751 23.9948 934.174 22.4959 934.174 20.6584C934.174 18.7605 933.745 17.2495 932.886 16.1253C932.028 14.989 930.741 14.4208 929.024 14.4208C927.852 14.4208 926.885 14.6868 926.123 15.2186C925.374 15.7384 924.817 16.4698 924.455 17.4127C924.092 18.3435 923.911 19.4254 923.911 20.6584C923.911 22.5563 924.34 24.0734 925.198 25.2097C926.069 26.3339 927.344 26.896 929.024 26.896Z" fill="white"/>
<path d="M806.765 16.45H821.082C825.966 16.45 829.924 20.4088 829.924 25.2921C829.924 30.1755 825.966 34.1343 821.082 34.1343H806.765V16.45Z" fill="white"/>
<path d="M806.765 0.976349H816.244C819.907 0.976349 822.876 3.94541 822.876 7.60793C822.876 11.2704 819.907 14.2395 816.244 14.2395H806.765V0.976349Z" fill="white"/>
<g clip-path="url(#clip5_48_439)">
<g clip-path="url(#clip6_48_439)">
<path d="M1017.83 2.69283C1017.79 2.62068 1017.76 2.54188 1017.76 2.46092C1017.75 2.37995 1017.76 2.29842 1017.78 2.22097C1017.81 2.14353 1017.85 2.07168 1017.9 2.00955C1017.95 1.94741 1018.02 1.8962 1018.09 1.85885C1020.3 0.732861 1022.76 0.175628 1025.25 0.237385C1027.73 0.299142 1030.16 0.977947 1032.32 2.2126C1032.39 2.25326 1032.45 2.30752 1032.5 2.37224C1032.55 2.43697 1032.58 2.51088 1032.6 2.58971C1032.63 2.66854 1032.63 2.75074 1032.62 2.83155C1032.61 2.91237 1032.58 2.99021 1032.54 3.06058L1025.42 15.2819C1025.36 15.3755 1025.29 15.4531 1025.19 15.507C1025.1 15.5609 1024.99 15.5892 1024.88 15.5891H1024.87C1024.76 15.5861 1024.65 15.5535 1024.56 15.4947C1024.46 15.4359 1024.39 15.353 1024.33 15.2546L1017.83 2.69283ZM1024.5 18.8484V18.8472L1017.99 6.28538C1017.92 6.13995 1017.79 6.03033 1017.63 5.98046C1017.48 5.93059 1017.31 5.94452 1017.16 6.0192C1015.43 6.9087 1013.88 8.13205 1012.62 9.61902C1011.36 11.106 1010.41 12.8273 1009.81 14.6842C1009.22 16.5411 1009 18.497 1009.16 20.4396C1009.33 22.3822 1009.87 24.2733 1010.77 26.0044C1011.67 27.7354 1012.89 29.2723 1014.39 30.5269C1015.88 31.7815 1017.6 32.7291 1019.46 33.3152C1021.32 33.9013 1023.28 34.1144 1025.22 33.9424C1027.16 33.7703 1029.05 33.2165 1030.78 32.3126C1030.93 32.2366 1031.03 32.1063 1031.08 31.9502C1031.13 31.794 1031.12 31.6247 1031.04 31.4791L1024.5 18.8484ZM1032.13 30.7219L1032.18 30.821C1032.26 30.9671 1032.39 31.0782 1032.54 31.1307C1032.6 31.1518 1032.67 31.1602 1032.74 31.1554C1032.84 31.1527 1032.93 31.1317 1033.02 31.0935C1033.25 30.9818 1033.47 30.8577 1033.68 30.7219C1034.31 30.3564 1034.91 29.9423 1035.48 29.4833H1031.49L1032.13 30.7219ZM1030.84 28.2446H1036.83C1037.21 27.8581 1037.57 27.4442 1037.89 27.006H1030.2L1030.84 28.2446ZM1029.57 25.7673H1038.77C1039.03 25.3697 1039.25 24.9559 1039.45 24.5287H1028.92L1029.57 25.7673ZM1028.28 23.2901H1040C1040.16 22.8857 1040.3 22.4721 1040.42 22.0514H1027.64L1028.28 23.2901ZM1026.99 20.8128H1040.73C1040.8 20.404 1040.86 19.9953 1040.9 19.5741H1026.36L1026.99 20.8128ZM1033.63 5.15636C1033.56 5.11313 1033.48 5.08524 1033.4 5.07456C1033.32 5.06388 1033.24 5.07065 1033.16 5.09443C1033.08 5.11275 1033 5.14753 1032.94 5.19657C1032.87 5.24561 1032.82 5.30784 1032.78 5.37931L1032.44 5.94909H1034.83C1034.45 5.66355 1034.05 5.39893 1033.63 5.15636ZM1036.33 7.18773H1031.72L1031.01 8.42637H1037.51C1037.14 7.98976 1036.75 7.5761 1036.33 7.18773ZM1038.44 9.66501H1030.27L1029.56 10.9037H1039.19C1038.97 10.4741 1038.72 10.0603 1038.44 9.66501ZM1039.79 12.1423H1028.84L1028.12 13.3809H1040.27C1040.13 12.9592 1039.97 12.5456 1039.79 12.1423ZM1040.62 14.6196H1027.39L1026.67 15.8582H1040.84C1040.79 15.4412 1040.72 15.0276 1040.62 14.6196ZM1040.96 17.0969H1025.95L1025.65 17.6047C1025.6 17.6941 1025.57 17.796 1025.57 17.9003C1025.57 18.0046 1025.59 18.1077 1025.64 18.1992L1025.72 18.3355H1040.99C1041 18.2116 1041 18.0754 1041 17.9515C1041 17.6666 1040.99 17.3817 1040.96 17.0969Z" fill="white"/>
<path d="M1017.54 5.40696C1017.31 4.97673 1016.78 4.80993 1016.36 5.06072C1013.06 7.04608 1010.6 10.182 1009.45 13.8808C1008.22 17.861 1008.62 22.1669 1010.57 25.8512C1012.51 29.5356 1015.84 32.2967 1019.82 33.5271C1023.52 34.6705 1027.5 34.4049 1031 32.801C1031.44 32.5985 1031.61 32.0632 1031.38 31.6329L1024.46 18.52L1017.54 5.40696Z" fill="white"/>
</g>
<path d="M1063.1 6.48689C1065.65 6.48689 1067.64 7.10322 1069.06 8.33586C1070.51 9.54726 1071.23 11.2687 1071.23 13.5002C1071.23 15.7317 1070.51 17.4638 1069.06 18.6965C1067.64 19.9079 1065.65 20.5136 1063.1 20.5136H1058.93V27.5269H1053.44V6.48689H1063.1ZM1062.24 16.4012C1064.56 16.4012 1065.72 15.4342 1065.72 13.5002C1065.72 11.5662 1064.56 10.5993 1062.24 10.5993H1058.93V16.4012H1062.24ZM1074.35 27.5269V11.5875H1079.14L1079.36 15.0304C1079.74 13.8615 1080.33 12.9477 1081.11 12.2888C1081.92 11.6087 1082.95 11.2687 1084.2 11.2687C1084.61 11.2687 1084.95 11.3112 1085.22 11.3962C1085.52 11.46 1085.76 11.5344 1085.93 11.6194L1085.38 16.0824C1085.17 16.0186 1084.89 15.9549 1084.55 15.8911C1084.24 15.8274 1083.84 15.7955 1083.38 15.7955C1082.4 15.7955 1081.55 16.1037 1080.82 16.72C1080.12 17.3363 1079.77 18.2608 1079.77 19.4934V27.5269H1074.35ZM1095.64 27.8457C1092.99 27.8457 1090.88 27.1231 1089.33 25.6779C1087.8 24.2327 1087.04 22.1925 1087.04 19.5572C1087.04 17.8145 1087.39 16.3268 1088.09 15.0942C1088.81 13.8403 1089.79 12.8945 1091.02 12.257C1092.27 11.5981 1093.73 11.2687 1095.39 11.2687C1097.07 11.2687 1098.49 11.5981 1099.66 12.257C1100.85 12.8945 1101.75 13.7871 1102.37 14.9348C1102.99 16.0612 1103.29 17.3576 1103.29 18.824C1103.29 19.2278 1103.27 19.6209 1103.23 20.0035C1103.21 20.3648 1103.19 20.6729 1103.17 20.928H1092.3C1092.44 22.0331 1092.81 22.8301 1093.38 23.3189C1093.95 23.7864 1094.71 24.0202 1095.64 24.0202C1096.45 24.0202 1097.09 23.8608 1097.56 23.542C1098.04 23.2233 1098.41 22.7769 1098.64 22.2031L1102.98 23.6377C1102.68 24.5515 1102.16 25.3273 1101.41 25.9648C1100.69 26.5811 1099.82 27.0487 1098.8 27.3675C1097.8 27.6863 1096.75 27.8457 1095.64 27.8457ZM1095.39 15.0623C1093.67 15.0623 1092.65 16.0505 1092.33 18.027H1098.16C1097.93 16.0505 1097 15.0623 1095.39 15.0623ZM1113.02 27.8457C1111.43 27.8457 1109.95 27.5906 1108.59 27.0806C1107.23 26.5493 1106.09 25.7948 1105.18 24.8172L1107.73 21.8206C1108.26 22.5007 1108.96 23.0745 1109.83 23.542C1110.72 23.9883 1111.71 24.2115 1112.8 24.2115C1113.46 24.2115 1114 24.1159 1114.42 23.9246C1114.85 23.7333 1115.06 23.4358 1115.06 23.032C1115.06 22.7557 1114.95 22.5219 1114.74 22.3306C1114.53 22.1394 1114.1 21.98 1113.47 21.8525L1111.24 21.4062C1109.24 21.0024 1107.81 20.4073 1106.96 19.6209C1106.13 18.8134 1105.72 17.7614 1105.72 16.465C1105.72 15.5936 1105.99 14.7647 1106.52 13.9784C1107.05 13.1921 1107.87 12.5439 1108.97 12.0338C1110.08 11.5237 1111.49 11.2687 1113.21 11.2687C1116.51 11.2687 1118.91 12.1826 1120.42 14.0103L1117.83 16.9431C1117.32 16.3056 1116.67 15.8061 1115.86 15.4448C1115.05 15.0835 1114.24 14.9029 1113.43 14.9029C1111.88 14.9029 1111.11 15.2961 1111.11 16.0824C1111.11 16.3587 1111.24 16.6031 1111.49 16.8156C1111.77 17.0281 1112.27 17.1982 1112.99 17.3257L1115.89 17.8995C1117.53 18.2183 1118.71 18.7708 1119.43 19.5572C1120.15 20.3223 1120.51 21.2574 1120.51 22.3625C1120.51 23.914 1119.88 25.221 1118.63 26.2836C1117.4 27.325 1115.53 27.8457 1113.02 27.8457ZM1134.74 11.5875V15.4448H1129.99V21.8525C1129.99 22.6176 1130.17 23.1701 1130.53 23.5102C1130.91 23.8289 1131.43 23.9883 1132.09 23.9883C1132.6 23.9883 1133.04 23.9352 1133.4 23.8289C1133.76 23.7014 1134.1 23.5208 1134.42 23.287L1134.99 26.6343C1134.46 26.9956 1133.78 27.2931 1132.95 27.5269C1132.14 27.7394 1131.33 27.8457 1130.5 27.8457C1128.67 27.8457 1127.22 27.4631 1126.16 26.698C1125.12 25.9117 1124.59 24.594 1124.57 22.7451V15.4448H1121.83V11.5875H1124.57V8.01707L1129.99 6.51877V11.5875H1134.74ZM1144.83 11.2687C1146.51 11.2687 1147.97 11.5981 1149.23 12.257C1150.5 12.9158 1151.49 13.8615 1152.19 15.0942C1152.91 16.3268 1153.27 17.8145 1153.27 19.5572C1153.27 21.2999 1152.91 22.7876 1152.19 24.0202C1151.49 25.2529 1150.5 26.1986 1149.23 26.8574C1147.97 27.5163 1146.51 27.8457 1144.83 27.8457C1143.17 27.8457 1141.7 27.5163 1140.43 26.8574C1139.17 26.1986 1138.19 25.2529 1137.46 24.0202C1136.76 22.7876 1136.41 21.2999 1136.41 19.5572C1136.41 17.8145 1136.76 16.3268 1137.46 15.0942C1138.19 13.8615 1139.17 12.9158 1140.43 12.257C1141.7 11.5981 1143.17 11.2687 1144.83 11.2687ZM1144.83 15.126C1143.89 15.126 1143.16 15.4767 1142.63 16.178C1142.12 16.8581 1141.86 17.9845 1141.86 19.5572C1141.86 21.1086 1142.12 22.235 1142.63 22.9363C1143.16 23.6377 1143.89 23.9883 1144.83 23.9883C1145.78 23.9883 1146.52 23.6377 1147.03 22.9363C1147.56 22.235 1147.82 21.1086 1147.82 19.5572C1147.82 17.9845 1147.56 16.8581 1147.03 16.178C1146.52 15.4767 1145.78 15.126 1144.83 15.126Z" fill="white"/>
</g>
</g>
<defs>
<clipPath id="clip0_48_439">
<rect width="1120" height="48" fill="white"/>
</clipPath>
<clipPath id="clip1_48_439">
<rect width="146.513" height="41.2903" fill="white" transform="translate(201.18 -4.47311)"/>
</clipPath>
<clipPath id="clip2_48_439">
<rect width="32.745" height="34.8351" fill="white" transform="translate(200.988 -0.319336)"/>
</clipPath>
<clipPath id="clip3_48_439">
<rect width="146.513" height="41.2903" fill="white" transform="translate(604.922 -4.47311)"/>
</clipPath>
<clipPath id="clip4_48_439">
<rect width="32.745" height="34.8351" fill="white" transform="translate(604.731 -0.319336)"/>
</clipPath>
<clipPath id="clip5_48_439">
<rect width="146.513" height="41.2903" fill="white" transform="translate(1008.67 -4.47311)"/>
</clipPath>
<clipPath id="clip6_48_439">
<rect width="32.745" height="34.8351" fill="white" transform="translate(1008.47 -0.319336)"/>
</clipPath>
</defs>
</svg>
